# This file uses centimeters as units for non-parametric coordinates.

mtllib building2.mtl
g default
v -7.933267 0.312195 7.933267
v 7.933267 0.312195 7.933267
v -7.933267 59.853210 7.933267
v 7.933267 59.853210 7.933267
v -7.933267 59.853210 -7.933267
v 7.933267 59.853210 -7.933267
v -7.933267 0.312195 -7.933267
v 7.933267 0.312195 -7.933267
vt 0.843714 0.311368
vt 0.216983 0.311156
vt 0.097287 0.025098
vt 0.239272 0.975075
vt 0.452114 0.974602
vt 0.351045 0.278856
vt 0.471912 0.019811
vt 0.638534 0.311624
vt 0.471912 0.285163
vt 0.737264 0.285163
vt 0.425692 0.310194
vt 0.425692 0.975075
vt 0.657294 0.311368
vt 0.657294 0.976249
vt 0.737264 0.019811
vt 0.239272 0.310194
vt 0.452114 0.311624
vt 0.030563 0.311156
vt 0.638534 0.974602
vt 0.097287 0.278856
vt 0.216983 0.976037
vt 0.351045 0.025098
vt 0.030563 0.976037
vt 0.843714 0.976249
vn 0.000000 0.000000 1.000000
vn 0.000000 0.000000 1.000000
vn 0.000000 0.000000 1.000000
vn 0.000000 0.000000 1.000000
vn 0.000000 1.000000 0.000000
vn 0.000000 1.000000 0.000000
vn 0.000000 1.000000 0.000000
vn 0.000000 1.000000 0.000000
vn 0.000000 0.000000 -1.000000
vn 0.000000 0.000000 -1.000000
vn 0.000000 0.000000 -1.000000
vn 0.000000 0.000000 -1.000000
vn 0.000000 -1.000000 0.000000
vn 0.000000 -1.000000 0.000000
vn 0.000000 -1.000000 0.000000
vn 0.000000 -1.000000 0.000000
vn 1.000000 0.000000 0.000000
vn 1.000000 0.000000 0.000000
vn 1.000000 0.000000 0.000000
vn 1.000000 0.000000 0.000000
vn -1.000000 0.000000 0.000000
vn -1.000000 0.000000 0.000000
vn -1.000000 0.000000 0.000000
vn -1.000000 0.000000 0.000000
s off
g pCube1
usemtl lambert3SG
f 1/18/1 2/2/2 4/21/3 3/23/4
f 3/3/5 4/22/6 6/6/7 5/20/8
f 5/5/9 6/19/10 8/8/11 7/17/12
f 7/7/13 8/15/14 2/10/15 1/9/16
f 2/16/17 8/11/18 6/12/19 4/4/20
f 7/13/21 1/1/22 3/24/23 5/14/24
