# This file uses centimeters as units for non-parametric coordinates.

mtllib building1.mtl
g default
v 22.902569 0.082621 9.791413
v 42.485394 0.082621 9.791413
v 22.902569 43.925392 9.791413
v 42.485394 43.925392 9.791413
v 22.902569 43.925392 -9.791413
v 42.485394 43.925392 -9.791413
v 22.902569 0.082621 -9.791413
v 42.485394 0.082621 -9.791413
vt 0.244180 0.480421
vt 0.492478 0.482373
vt 0.265914 0.200611
vt 0.507393 0.998927
vt 0.764198 0.996234
vt 0.428122 0.362819
vt 0.034965 0.261215
vt 0.996366 0.484268
vt 0.034965 0.423424
vt 0.197174 0.423424
vt 0.742304 0.485552
vt 0.742304 0.998927
vt 0.006526 0.480421
vt 0.006526 0.993796
vt 0.197174 0.261215
vt 0.507393 0.485552
vt 0.764198 0.484268
vt 0.257567 0.482373
vt 0.996366 0.996234
vt 0.265914 0.362819
vt 0.492478 0.995747
vt 0.428122 0.200611
vt 0.257567 0.995747
vt 0.244180 0.993796
vn 0.000000 0.000000 1.000000
vn 0.000000 0.000000 1.000000
vn 0.000000 0.000000 1.000000
vn 0.000000 0.000000 1.000000
vn 0.000000 1.000000 0.000000
vn 0.000000 1.000000 0.000000
vn 0.000000 1.000000 0.000000
vn 0.000000 1.000000 0.000000
vn 0.000000 0.000000 -1.000000
vn 0.000000 0.000000 -1.000000
vn 0.000000 0.000000 -1.000000
vn 0.000000 0.000000 -1.000000
vn 0.000000 -1.000000 0.000000
vn 0.000000 -1.000000 0.000000
vn 0.000000 -1.000000 0.000000
vn 0.000000 -1.000000 0.000000
vn 1.000000 0.000000 0.000000
vn 1.000000 0.000000 0.000000
vn 1.000000 0.000000 0.000000
vn 1.000000 0.000000 0.000000
vn -1.000000 0.000000 0.000000
vn -1.000000 0.000000 0.000000
vn -1.000000 0.000000 0.000000
vn -1.000000 0.000000 0.000000
s off
g building1
usemtl lambert2SG
f 1/18/1 2/2/2 4/21/3 3/23/4
f 3/3/5 4/22/6 6/6/7 5/20/8
f 5/5/9 6/19/10 8/8/11 7/17/12
f 7/7/13 8/15/14 2/10/15 1/9/16
f 2/16/17 8/11/18 6/12/19 4/4/20
f 7/13/21 1/1/22 3/24/23 5/14/24
